<svg height="100%" stroke-miterlimit="10" style="fill-rule:nonzero;clip-rule:evenodd;stroke-linecap:round;stroke-linejoin:round;" version="1.1" viewBox="128.138 73.4821 261.867 166.555" width="100%" xml:space="preserve" xmlns="http://www.w3.org/2000/svg">
<defs/>
<g clip-path="url(#ArtboardFrame)" id="Layer" >
<g opacity="1" >
<path d="M354.433 91.7722C354.792 91.7794 355.077 92.0762 355.07 92.4351C354.935 99.152 354.523 107.083 354.092 115.386C353.863 119.802 353.628 124.323 353.427 128.823C352.846 141.806 352.541 154.619 353.425 164.336C353.955 170.196 354.727 176.282 355.514 182.492C356.075 186.915 356.644 191.401 357.139 195.912C358.325 206.719 359.077 217.599 358.227 227.827C358.197 228.184 357.883 228.45 357.525 228.42C357.167 228.391 356.902 228.077 356.931 227.719C357.771 217.618 357.03 206.838 355.847 196.054C355.357 191.595 354.791 187.124 354.23 182.701C353.439 176.462 352.661 170.321 352.13 164.453C351.238 154.638 351.547 141.745 352.128 128.765C352.331 124.241 352.566 119.708 352.795 115.287C353.226 107 353.635 99.1065 353.77 92.409C353.777 92.0501 354.074 91.765 354.433 91.7722Z" fill="#0c0c0d" fill-rule="evenodd" opacity="1" stroke="none"/>
<path d="M357.506 76.2665C316.833 72.4025 275.478 73.4268 234.663 74.2618C231.351 74.3296 229.663 73.7234 227.117 76.1237C224.644 78.4553 224.632 82.5129 224.104 85.6297C222.84 93.0911 222.811 101.978 219.65 108.849C217.979 112.452 213.676 115.665 211.028 118.605C207.43 122.597 203.66 127.733 201.589 134.817C201.499 134.576 201.408 134.335 201.315 134.095L200.173 131.128C195.714 119.523 195.751 107.69 195.751 95.4943C195.749 93.335 194.2 91.4133 192.091 90.9519C183.28 89.009 174.005 88.9868 165.165 90.7767L165.151 90.7796C163.058 91.2511 161.532 93.1692 161.542 95.3141C161.542 107.57 161.597 119.466 157.111 131.128L155.968 134.095C152.982 141.855 151.45 150.098 151.45 158.412L151.45 181.515C148.468 181.343 145.487 181.21 142.507 181.145C137.518 180.668 134.471 182.832 132.346 187.315C128.263 195.818 126.826 207.931 129.491 217.949C132.305 228.529 140.282 236.066 151.562 236.066L231.868 236.066C236.151 236.078 240.336 234.101 243.045 230.79C244.866 233.574 246.996 235.619 249.397 237.069C255.726 240.89 263.754 240.451 272.42 238.92C273.393 238.982 274.379 238.903 275.309 238.684C278.968 237.821 281.691 234.193 280.268 230.478L343.272 230.478C343.299 230.478 343.327 230.476 343.355 230.472L361.6 228.11C363.869 227.818 365.627 225.842 365.653 223.555L365.702 219.783C373.507 221.286 381.477 221.746 389.403 221.152C389.761 221.125 390.03 220.813 390.003 220.455C389.976 220.097 389.664 219.828 389.306 219.855C381.417 220.447 373.484 219.979 365.719 218.463L365.806 211.783C365.811 211.424 365.524 211.129 365.165 211.124C364.806 211.12 364.511 211.407 364.506 211.766L364.353 223.539L364.353 223.54C364.334 225.188 363.068 226.611 361.433 226.821L344.632 228.996C344.632 226.699 344.631 224.284 344.631 221.764L344.631 221.612C344.621 182.953 344.606 119.861 346.302 83.7429C346.319 83.3843 346.042 83.08 345.683 83.0631C345.325 83.0463 345.02 83.3233 345.003 83.6819C343.306 119.833 343.321 182.953 343.331 221.604L343.331 221.78C343.331 224.356 343.332 226.823 343.332 229.164L279.575 229.178C279.022 228.384 278.291 227.711 277.469 227.176C273.78 224.778 268.215 225.04 265.924 229.204C265.844 229.168 265.755 229.149 265.662 229.149L250.441 229.149C248.771 228.367 247.148 227.307 245.673 225.876C246.088 224.517 246.3 223.101 246.3 221.675L246.3 212.943L274.036 212.943C274.208 212.943 274.374 212.875 274.496 212.753C274.617 212.631 274.686 212.465 274.686 212.293C274.676 191.905 275.531 177.735 273.993 157.326C273.967 156.99 273.689 156.729 273.351 156.725C247.174 156.447 231.091 156.723 205.824 157.286C205.709 150.356 204.53 143.487 202.332 136.921C202.374 136.859 202.406 136.789 202.425 136.711C204.301 129.086 208.212 123.672 211.993 119.475C214.771 116.391 219.079 113.172 220.83 109.395L220.831 109.393C224.062 102.378 224.116 93.3437 225.406 85.7275C225.85 83.1055 225.855 79.1003 228.009 77.0695C229.897 75.2897 232.315 75.6102 234.69 75.5616C275.434 74.7279 316.714 73.7072 357.318 77.5545C362.514 79.1516 365.719 84.1491 365.965 92.3739L365.965 94.4866C365.965 94.8456 366.256 95.1366 366.615 95.1366C366.974 95.1366 367.265 94.8456 367.265 94.4866L367.265 92.3643L367.265 92.3451C367.011 83.7838 363.614 78.0941 357.632 76.2912C357.591 76.2788 357.549 76.2705 357.506 76.2665ZM246.3 211.643L273.386 211.643C273.393 193.757 274.055 175.884 272.741 158.019C246.928 157.752 230.913 158.028 205.834 158.586L205.834 184.609C213.874 184.955 221.925 185.207 229.962 185.64C238.977 186.032 246.303 193.686 246.3 202.71L246.3 211.643ZM204.534 184.553L204.534 158.412C204.533 150.257 203.031 142.173 200.102 134.562L198.959 131.595C194.442 119.837 194.451 107.853 194.451 95.4955C194.449 93.939 193.333 92.5539 191.812 92.2217L191.811 92.2214C183.206 90.3239 174.065 90.302 165.43 92.0494C163.928 92.3909 162.834 93.7691 162.842 95.3092L162.842 95.3125C162.842 107.732 162.869 119.779 158.324 131.594L157.181 134.562C154.252 142.172 152.75 150.257 152.75 158.412L152.75 181.593C162.654 182.203 172.534 183.205 182.451 183.604L204.534 184.553ZM244.629 224.77C244.875 223.759 245 222.72 245 221.675L245 202.71C245.003 194.371 238.233 187.299 229.902 186.938L229.895 186.938C214.074 186.087 198.228 185.583 182.399 184.903C169.067 184.367 155.798 182.734 142.454 182.445C142.438 182.444 142.421 182.443 142.405 182.442C138.086 182.019 135.33 184.055 133.52 187.873L133.519 187.876C129.565 196.111 128.165 207.907 130.747 217.615C133.412 227.632 140.868 234.766 151.562 234.766L231.872 234.766C235.924 234.778 239.866 232.829 242.319 229.612C239.494 224.749 237.5 217.878 236.495 208.376C236.458 208.019 236.716 207.699 237.073 207.662C237.43 207.624 237.75 207.883 237.788 208.24C237.844 208.77 237.903 209.292 237.966 209.805C238.069 209.641 238.245 209.525 238.453 209.505C238.81 209.47 239.128 209.732 239.162 210.089C239.83 217.002 241.92 221.637 244.629 224.77ZM243.134 228.411C241.527 225.491 240.195 221.809 239.19 217.196C240.355 221.076 242.111 224.019 244.186 226.219C243.904 226.981 243.551 227.716 243.134 228.411ZM244.207 229.149C244.583 228.529 244.913 227.881 245.193 227.209C246.008 227.951 246.862 228.594 247.738 229.149L244.207 229.149ZM254.108 230.449L265.391 230.449C265.323 230.667 265.265 230.889 265.218 231.113C261.479 231.284 257.774 231.383 254.108 230.449ZM250.156 230.449L244.382 230.449C246.053 232.899 247.965 234.685 250.069 235.956C255.258 239.089 261.77 239.193 269.16 238.129C266.9 237.099 265.27 234.931 265.086 232.422C262.604 232.553 256.773 233.056 251.155 230.868C250.822 230.738 250.488 230.598 250.156 230.449ZM273.338 237.433L272.414 232.965C272.222 232.078 273.881 231.638 274.036 232.315C274.423 234.012 274.658 235.74 274.736 237.478C274.197 237.586 273.516 237.729 273.338 237.433ZM272.041 237.581L271.143 233.236C271.071 232.902 271.072 232.554 271.145 232.22C271.532 230.497 275.071 230.033 275.312 232.064C275.688 233.722 275.925 235.409 276.019 237.106C280.046 235.526 280.305 230.572 276.76 228.266C272.986 225.812 266.588 226.737 266.38 232.295C266.585 235.331 269.203 237.25 272.041 237.581Z" fill="#0c0c0d" fill-rule="evenodd" opacity="1" stroke="none" />
<path d="M379.313 94.477C379.313 94.118 379.604 93.827 379.963 93.827C384.13 93.827 387.614 97.3104 387.614 101.477L387.614 204.688C387.614 208.855 384.13 212.338 379.963 212.338C379.604 212.338 379.313 212.047 379.313 211.688C379.313 211.329 379.604 211.038 379.963 211.038C383.422 211.038 386.314 208.147 386.314 204.688L386.314 101.477C386.314 98.0184 383.422 95.127 379.963 95.127C379.604 95.127 379.313 94.836 379.313 94.477Z" fill="#000000" fill-rule="evenodd" opacity="1" stroke="none" />
</g>
</g>
</svg>
