<svg height="241.0pt" stroke-miterlimit="10" style="fill-rule:nonzero;clip-rule:evenodd;stroke-linecap:round;stroke-linejoin:round;" version="1.1" viewBox="0 0 450 241" width="450.0pt" xml:space="preserve" xmlns="http://www.w3.org/2000/svg">
<defs/>
<g id="Untitled">
<path d="M319.171 1.51612C283.065 6.33177 268.283 36.7429 263.578 53.2984C263.578 53.2984 261.18 56.1579 269.759 58.3034C278.339 60.4488 293.583 54.7414 293.583 54.7414L314.262 39.9465L336.096 34.1434C336.935 33.9203 337.64 34.7999 337.24 35.5708L327.589 54.152L307.061 73.0361C307.061 73.0361 300.37 80.6771 299.348 90.7866C310.422 106.589 299.168 163.366 293.583 188.756C373.368 224.753 415.935 169.811 408.525 128.305C402.782 96.133 373.679 86.7822 388.357 53.2984C388.357 53.2984 368.97 42.6367 373.368 19.8389C361.088 6.13548 347.197-2.22188 319.171 1.51612Z" fill="#0c0c0d" fill-opacity="0.07" fill-rule="nonzero" opacity="1" stroke="none"/>
<g opacity="1">
<path d="M205.566 41.6284C212.088 41.6326 219.84 42.4701 227.838 44.242C239.292 46.7796 251.188 51.2199 260.647 57.8119C249.21 58.6134 239.824 64.6502 241.412 65.936C242.408 66.7426 246.136 69.2192 250.314 71.9942C256.198 75.9026 262.973 80.4031 264.262 81.6641C263.95 82.976 263.044 84.0329 261.166 85.2384C258.583 86.8962 255.417 89.4459 256.932 91.3641C258.346 93.1539 264.262 100.937 265.598 100.805C267.342 100.633 270.454 96.3341 273.758 94.7215C276.321 95.9111 278.431 102.18 280.717 108.968C282.138 113.187 283.626 117.607 285.332 121.133C285.74 120.851 286.134 120.565 286.516 120.275C288.233 143.151 291.348 160.308 295.023 169.923C295.951 172.354 296.926 174.328 297.938 175.799C299.499 178.067 302.08 180.04 304.735 178.151C297.744 194.47 286.462 208.513 272.307 218.862C267.063 219.611 262.863 215.923 260.007 211.915C255.625 205.763 252.095 196.132 249.228 185.037C243.499 162.868 240.492 135.177 238.458 118.651C236.397 101.906 227.245 92.2106 216.147 87.766C205.092 83.3386 192.148 84.1342 182.433 88.2443C173.803 91.8957 167.623 92.6385 162.806 92.1094C148.546 90.5434 141.792 81.3829 128.538 91.6503C143.984 63.9961 172.406 44.5758 205.566 41.6284Z" fill="#afc1dc" fill-rule="nonzero" opacity="1" stroke="none"/>
<path d="M126.942 94.6281C121.052 106.084 117.347 118.848 116.378 132.369C118.085 128.106 121.769 124.692 126.651 125.196C132.368 125.787 138.485 131.336 141.9 140.827C143.08 144.106 145.301 145.423 148.6 144.092C158.516 140.092 165.278 130.935 176.115 128.486C195.135 124.187 204.982 145.644 207.448 160.904C209.271 172.181 209.226 184.743 209.817 196.203C210.411 207.729 211.647 218.11 215.932 225.289C220.242 232.508 227.814 235.394 235.933 235.375C248.482 232.566 260.125 227.357 270.354 220.254C265.479 220.025 261.646 216.455 258.948 212.669C254.421 206.313 250.844 196.487 247.969 185.362C242.337 163.568 239.912 141.103 237.168 118.81C235.166 102.542 226.328 93.2437 215.664 88.9728C204.957 84.6849 192.37 85.4519 182.94 89.4416C174.16 93.1563 167.755 93.9608 162.664 93.4016C146.852 91.6651 141.139 82.5178 126.942 94.6281Z" fill="#afc1dc" fill-rule="nonzero" opacity="1" stroke="none"/>
<path d="M230.961 236.354C224.213 235.411 218.357 231.888 214.816 225.955C210.344 218.463 209.112 207.767 208.519 196.27C207.915 184.549 208.042 172.724 206.165 161.111C203.827 146.648 194.615 125.638 176.402 129.754C165.678 132.177 158.923 141.329 149.086 145.297C145.114 146.9 142.1 145.221 140.677 141.267C137.343 132.002 131.523 127.006 126.518 126.489C119.558 125.771 116.734 133.384 116.175 139.017C116.165 139.118 116.124 139.414 116.124 139.493C116.124 149.347 117.575 158.862 120.274 167.837C120.287 165.383 120.621 163.291 121.209 161.553C123.576 154.555 130.868 153.555 136.001 158.386C138.606 160.838 140.802 164.657 141.923 169.702C143.583 177.167 143.236 191.475 149.571 196.541C151.091 197.757 153.245 198.81 156.489 200.072C162.721 202.495 167.53 205.856 170.851 209.349C173.901 212.556 178.487 218.971 175.393 223.553C173.63 226.162 170.066 226.242 167.277 225.743C181.262 233.396 197.312 237.747 214.378 237.747C220.03 237.747 225.571 237.27 230.961 236.354Z" fill="#afc1dc" fill-rule="nonzero" opacity="1" stroke="none"/>
<path d="M162.464 222.928C165.505 224.169 171.864 226.454 174.315 222.825C177.01 218.835 172.473 212.942 169.909 210.244C166.73 206.9 162.085 203.643 156.018 201.283C152.757 200.015 150.444 198.904 148.76 197.557C142.046 192.188 142.41 177.88 140.654 169.984C139.579 165.147 137.494 161.576 135.11 159.333C130.652 155.137 124.508 155.857 122.441 161.97C121.55 164.603 121.263 168.243 121.972 172.962C129.523 193.808 143.928 211.37 162.464 222.928Z" fill="#afc1dc" fill-rule="nonzero" opacity="1" stroke="none"/>
<path d="M306.304 174.261C310.394 163.452 312.633 151.734 312.633 139.493C312.633 121.701 307.904 105.014 299.634 90.6191C299.502 91.4486 299.374 92.2753 299.247 93.0984C298.233 99.6801 296.535 108.968 287.764 119.53C289.469 142.703 292.598 159.937 296.237 169.459C297.145 171.836 298.076 173.707 299.009 175.062C300.164 176.74 302.027 178.543 304.049 177.043C304.772 176.507 305.531 175.6 306.304 174.261Z" fill="#afc1dc" fill-rule="nonzero" opacity="1" stroke="none"/>
<path d="M262.508 57.7296C264.946 57.6856 267.453 57.8952 269.946 58.4503C255.384 48.4464 237.991 42.2655 219.214 41.3555C222.118 41.767 225.103 42.3046 228.119 42.9728C234.528 44.3926 248.895 47.4724 262.508 57.7296Z" fill="#afc1dc" fill-rule="nonzero" opacity="1" stroke="none"/>
</g>
<path d="M182.92 122.613C186.665 128.741 207.774 114.783 205.901 112.228C203.482 108.93 179.174 116.485 182.92 122.613Z" fill="#ffffff" fill-rule="nonzero" opacity="1" stroke="none"/>
<path d="M245.076 123.433C246.103 124.118 247.222 124.055 248.385 123.446C250.98 122.088 252.995 118.926 253.633 116.122C253.778 115.485 253.812 114.947 253.748 114.536C253.635 113.813 253.262 113.674 252.59 113.816C252.124 113.914 251.543 114.13 250.894 114.454C248.346 115.723 245.186 118.05 244.252 120.875C243.914 121.897 244.163 122.825 245.076 123.433ZM252.322 112.544C253.714 112.25 254.805 112.877 255.032 114.337C255.13 114.965 255.067 115.679 254.9 116.41C254.178 119.584 251.918 123.064 248.988 124.598C247.528 125.362 245.881 125.533 244.354 124.515C242.961 123.586 242.499 122.036 243.018 120.467C244.064 117.303 247.446 114.719 250.314 113.29C251.022 112.938 251.71 112.673 252.322 112.544Z" fill="#ffffff" fill-rule="nonzero" opacity="1" stroke="none"/>
<path d="M426.161 28.4834C426.161 43.5391 413.956 55.7441 398.9 55.7441C383.845 55.7441 371.64 43.5391 371.64 28.4834C371.64 13.4277 383.845 1.22266 398.9 1.22266C413.956 1.22266 426.161 13.4277 426.161 28.4834Z" fill="#ffbd00" fill-rule="nonzero" opacity="1" stroke="none"/>
<path d="M218.842 137.766C222.147 128.016 246.554 106.617 261.728 97.7457L258.227 92.5405C235.991 106.342 196.735 127.306 177.062 136.164C177.017 136.212 176.964 136.255 176.902 136.289C174.582 137.586 171.864 138.985 169.207 139.688C166.555 140.391 163.832 140.435 161.626 138.837C161.335 138.627 161.27 138.22 161.481 137.929C161.691 137.639 162.097 137.574 162.388 137.784C164.133 139.048 166.383 139.092 168.874 138.432C171.215 137.811 173.654 136.599 175.861 135.381C176.447 133.006 176.2 128.871 172.518 124.526C166.536 117.466 149.718 121.811 146.935 137.001C146.476 139.503 146.193 142.091 145.904 144.726C144.681 155.894 143.364 167.915 128.229 177.909C112.508 188.29 88.4069 181.913 70.2555 178.933C54.8151 176.399 44.3632 174.683 37.0998 183.399C30.2886 191.572 35.9817 200.224 39.045 204.879L39.1133 204.983C27.7671 203.162 18.9121 222.583 33.2653 232.76C49.347 244.164 73.3481 233.613 81.1451 225.816C80.7799 228.009 78.5951 234.291 87.0561 236.923C99.4079 240.766 128.229 230.061 136.335 212.658C141.758 201.014 159.117 183.053 165.94 180.86C163.747 183.906 161.003 194.508 172.518 196.211C193.778 199.355 213.298 183.63 223.497 162.805C228.386 152.821 230.646 139.888 219.729 139.023C218.227 139.073 216.192 139.286 214.04 139.849C210.558 140.76 206.868 142.56 204.588 145.964C204.388 146.263 203.984 146.342 203.686 146.142C203.387 145.943 203.308 145.539 203.508 145.241C206.036 141.468 210.072 139.543 213.71 138.591C215.58 138.102 217.371 137.863 218.842 137.766Z" fill="#ffffff" fill-rule="nonzero" opacity="1" stroke="none"/>
<path d="M304.284 45.8791L299.913 49.358C293.553 54.3104 288.289 56.5526 282.766 57.4485C271.188 59.3268 260.056 55.2157 248.844 59.8849C244.812 61.5641 241.757 63.7453 240.321 65.3866C240.063 65.6821 240.131 66.1531 240.462 66.3635L262.142 80.1205C262.158 80.1489 262.177 80.1762 262.197 80.2021L275.614 97.0611C275.635 97.0883 275.659 97.1133 275.683 97.1361L284.199 121.324C284.329 121.694 284.773 121.867 285.119 121.681C287.04 120.65 289.852 118.163 292.395 114.612C299.463 104.743 297.969 92.9798 302.404 82.1272C305.64 74.2087 312.009 68.929 318.51 63.7553C326.866 57.1054 331.579 48.153 336.417 38.962L336.419 38.9596C336.706 38.4139 336.994 37.8674 337.282 37.3205C338.362 35.2777 336.492 32.9285 334.259 33.5215C333.661 33.6804 333.063 33.8382 332.466 33.9958C322.423 36.6469 312.641 39.2292 304.284 45.8791ZM336.133 36.7133C336.683 35.6726 335.73 34.4759 334.593 34.7779C333.934 34.9528 333.277 35.1261 332.62 35.2991C322.816 37.883 313.253 40.4036 305.094 46.8963C303.635 48.0574 302.188 49.2339 300.717 50.3798L263.619 79.9012L276.226 95.743L317.701 62.7381C325.859 56.2454 330.463 47.4919 335.182 38.5185L335.187 38.5085C335.502 37.9109 335.817 37.3123 336.133 36.7133ZM305.495 74.1127L276.953 96.8262L285.161 120.143C286.842 119.047 289.168 116.885 291.338 113.855C298.287 104.153 296.832 92.3266 301.201 81.6353C302.269 79.0219 303.641 76.5528 305.495 74.1127ZM282.975 58.7317C285.756 58.2804 288.465 57.5013 291.253 56.249L262.726 78.9511L241.829 65.6911C243.274 64.2993 245.903 62.5178 249.344 61.085C260.367 56.4945 271.569 60.5821 282.975 58.7317Z" fill="#0c0c0d" fill-rule="evenodd" opacity="1" stroke="none"/>
<path d="M326.349 40.6503C327.938 40.3393 329.219 41.9485 328.559 43.4279L325.173 51.0175C324.562 52.3875 322.716 52.6218 321.782 51.448L317.012 45.4539C316.077 44.2801 316.72 42.5338 318.193 42.2458L326.349 40.6503Z" fill="#afc1dc" fill-rule="nonzero" opacity="1" stroke="none"/>
<g opacity="1">
<path d="M393.022 12.3832C392.153 12.463 391.285 12.6947 390.461 12.9709C389.034 13.4496 387.274 14.294 385.787 15.765C385.981 16.9717 386.574 18.3358 387.17 19.4649C387.543 20.1699 387.946 20.8649 388.399 21.5221C388.601 21.8138 388.53 22.2249 388.237 22.428C387.942 22.6329 387.537 22.56 387.333 22.2652C386.851 21.5628 386.418 20.8245 386.021 20.072C385.359 18.8181 384.617 17.1378 384.454 15.6053L384.422 15.3061L384.63 15.0882C386.353 13.2788 388.425 12.2826 390.048 11.7384C390.968 11.4299 391.942 11.1694 392.914 11.0877C393.272 11.0579 393.586 11.3238 393.616 11.6816C393.645 12.039 393.379 12.353 393.022 12.3832Z" fill="#f3f5f7" fill-rule="nonzero" opacity="1" stroke="none"/>
<path d="M403.807 26.3246C404.103 26.1207 404.507 26.1948 404.711 26.4903C406.126 28.5394 406.896 30.4467 407.313 31.8486C407.492 32.4527 407.979 34.3534 407.625 34.6736C407.015 35.2249 406.401 35.735 405.703 36.1798C404.433 36.9899 402.514 37.9452 399.889 38.5617C399.54 38.6438 399.19 38.4271 399.108 38.0776C399.026 37.7281 399.242 37.3783 399.592 37.2962C402.06 36.7164 403.845 35.823 405.005 35.0836C405.732 34.6199 406.215 34.2161 406.466 33.9875C406.418 33.6488 406.308 33.0303 406.067 32.2191C405.683 30.9272 404.967 29.1485 403.641 27.2288C403.438 26.9334 403.512 26.5286 403.807 26.3246Z" fill="#f3f5f7" fill-rule="nonzero" opacity="1" stroke="none"/>
<path d="M409.805 11.8136C409.94 12.1461 409.78 12.5254 409.448 12.6608C402.14 15.6378 390.978 24.6908 387.806 40.8353C387.737 41.1875 387.395 41.417 387.043 41.3478C386.691 41.2785 386.461 40.9369 386.53 40.5846C389.799 23.9478 401.307 14.5735 408.958 11.4569C409.29 11.3215 409.669 11.4812 409.805 11.8136Z" fill="#f3f5f7" fill-rule="nonzero" opacity="1" stroke="none"/>
</g>
<path d="M63.6916 127.797C35.0194 126.938 43.3233 90.1086 56.9399 73.7848C68.9781 59.3532 87.4584 55.924 99.0797 72.1782C112.737 91.2807 92.3638 128.657 63.6916 127.797Z" fill="#0c0c0d" fill-opacity="0.07" fill-rule="nonzero" opacity="1" stroke="none"/>
<path d="M80.3742 18.775C80.6775 18.6498 81.0265 18.7703 81.188 19.0559C81.8068 20.1502 82.2572 21.0297 82.7624 21.9074C83.7214 23.5735 84.558 24.6302 85.8239 24.9934C86.4576 25.1752 87.2528 25.2012 88.3095 24.9856C88.5951 24.9273 88.8847 25.0664 89.0177 25.3259C89.1508 25.5853 89.0949 25.9016 88.8809 26.0996C87.1501 27.7011 86.5047 28.4982 86.3144 29.5412C86.0415 31.0363 86.6727 33.4453 87.0288 35.2089C87.0931 35.527 86.9128 35.8438 86.6066 35.9511C86.3003 36.0583 85.9618 35.9233 85.8135 35.6346C84.4506 32.9817 83.5992 31.5172 82.6021 30.6676C81.662 29.8664 80.5292 29.5673 78.3993 29.5197C78.0993 29.513 77.8429 29.3018 77.7788 29.0087C77.7147 28.7156 77.8596 28.4166 78.1294 28.2854C79.236 27.747 79.9368 27.1897 80.3731 26.6263C81.2406 25.5063 81.1958 24.2241 80.7888 22.4692C80.5814 21.5749 80.2926 20.6286 79.9955 19.5482C79.9085 19.2318 80.0709 18.9002 80.3742 18.775ZM80.4457 28.3788C81.639 28.568 82.5909 28.95 83.4453 29.6781C84.0138 30.1625 84.525 30.7905 85.0419 31.5818C84.9332 30.721 84.9117 29.9863 85.0355 29.3078C85.2313 28.2351 85.777 27.3895 86.6769 26.4333C86.2469 26.4153 85.8445 26.3518 85.4654 26.243C84.0836 25.8466 83.142 24.8906 82.319 23.6651C82.4635 25.0105 82.2782 26.2896 81.4009 27.4224C81.1395 27.7599 80.8225 28.0779 80.4457 28.3788Z" fill="#0c0c0d" fill-rule="evenodd" opacity="1" stroke="none"/>
<path d="M157.292 70.8454C150.85 70.8454 145.627 65.6229 145.627 59.1806C145.627 52.7383 150.85 47.5158 157.292 47.5158C163.734 47.5158 168.957 52.7383 168.957 59.1806C168.957 65.6229 163.734 70.8454 157.292 70.8454ZM157.292 72.1454C164.452 72.1454 170.257 66.3408 170.257 59.1806C170.257 52.0203 164.452 46.2158 157.292 46.2158C150.132 46.2158 144.327 52.0203 144.327 59.1806C144.327 66.3408 150.132 72.1454 157.292 72.1454Z" fill="#167dff" fill-rule="nonzero" opacity="1" stroke="none"/>
<path d="M425.996 121.237C424.565 121.237 423.405 122.397 423.405 123.828C423.405 125.259 424.565 126.419 425.996 126.419C427.427 126.419 428.588 125.259 428.588 123.828C428.588 122.397 427.427 121.237 425.996 121.237ZM422.105 123.828C422.105 121.679 423.847 119.937 425.996 119.937C428.145 119.937 429.888 121.679 429.888 123.828C429.888 125.977 428.145 127.719 425.996 127.719C423.847 127.719 422.105 125.977 422.105 123.828Z" fill="#0c0c0d" fill-rule="nonzero" opacity="1" stroke="none"/>
<path d="M387.135 177.356C383.411 177.356 380.391 180.375 380.391 184.1C380.391 187.824 383.411 190.844 387.135 190.844C390.86 190.844 393.879 187.824 393.879 184.1C393.879 180.375 390.86 177.356 387.135 177.356ZM379.091 184.1C379.091 179.657 382.693 176.056 387.135 176.056C391.578 176.056 395.179 179.657 395.179 184.1C395.179 188.542 391.578 192.144 387.135 192.144C382.693 192.144 379.091 188.542 379.091 184.1Z" fill="#ff6c8c" fill-rule="nonzero" opacity="1" stroke="none"/>
<g opacity="1">
<path d="M44.1253 123.737C44.4318 123.55 44.8317 123.647 45.0186 123.953C46.499 126.381 49.667 127.149 52.0945 125.668C54.522 124.188 55.2899 121.02 53.8096 118.593C53.6227 118.286 53.7196 117.886 54.0261 117.699C54.3326 117.512 54.7326 117.609 54.9195 117.916C56.7736 120.956 55.8119 124.924 52.7713 126.778C49.7308 128.632 45.7629 127.671 43.9087 124.63C43.7218 124.324 43.8188 123.924 44.1253 123.737Z" fill="#0c0c0d" fill-rule="nonzero" opacity="1" stroke="none"/>
<path d="M264.721 81.3726L275.039 94.3381L266.969 100.76C265.824 101.671 264.157 101.482 263.246 100.336L256.228 91.518C255.317 90.3728 255.506 88.7057 256.651 87.7943L264.721 81.3726ZM264.513 83.1993L257.461 88.8116C256.877 89.2758 256.781 90.1251 257.245 90.7085L264.263 99.527C264.727 100.11 265.576 100.207 266.16 99.7427L273.212 94.1304L264.513 83.1993Z" fill="#0c0c0d" fill-rule="nonzero" opacity="1" stroke="none"/>
<path d="M300.255 62.5611C300.635 62.2694 301.178 62.3359 301.477 62.7106C301.775 63.0854 301.718 63.63 301.348 63.9345L265.126 93.789L255.5 99.8064C255.096 100.059 254.668 99.5211 255.005 99.1845L263.03 91.155L300.255 62.5611Z" fill="#0c0c0d" fill-rule="nonzero" opacity="1" stroke="none"/>
</g>
</g>
</svg>
